<svg width="531" height="99" viewBox="0 0 531 99" fill="none" xmlns="http://www.w3.org/2000/svg">
<g clip-path="url(#clip0_33_6546)">
<g clip-path="url(#clip1_33_6546)">
<path d="M142.27 32.3C142.89 32.3 143.67 32.38 144.24 32.46C145.41 32.5 146.53 32.07 147.39 31.25C148.25 30.42 148.75 29.26 148.75 28.06C148.75 25.84 147.15 23.95 145.06 23.66C143.52 23.39 141.91 23.26 140.14 23.26C135.9 23.26 132.71 24.39 130.39 26.72C128.04 29.07 126.85 32.65 126.85 37.35V40.01H125.62C123.15 40.01 121.13 42.02 121.13 44.5C121.13 46.98 123.14 48.91 125.62 48.91H126.85V77.76C126.85 80.63 129.18 82.96 132.05 82.96C134.92 82.96 137.33 80.63 137.33 77.76V48.91H144.19C146.66 48.91 148.67 46.93 148.67 44.5C148.67 42.07 146.7 40.09 144.19 40.09H137.17V38.23C137.17 34.2 138.8 32.32 142.29 32.32" fill="#09092D"/>
<path d="M159.99 61.07C159.99 53.6 165.11 48.17 172.17 48.17C179.23 48.17 184.59 53.78 184.59 61.23V61.39C184.59 68.82 179.43 74.21 172.33 74.21C165.23 74.21 159.99 68.51 159.99 61.23V61.07ZM172.33 38.88C159.53 38.88 149.51 48.7 149.51 61.22V61.38C149.51 73.78 159.47 83.49 172.17 83.49C184.87 83.49 195.07 73.71 195.07 61.22V61.06C195.07 48.62 185.08 38.87 172.33 38.87" fill="#09092D"/>
<path d="M234.85 39.28C231.89 39.28 229.57 41.6 229.57 44.56V63.85C229.57 69.95 226.12 73.73 220.56 73.73C215 73.73 212.03 70.28 212.03 64.01V44.56C212.03 41.6 209.71 39.28 206.75 39.28C203.79 39.28 201.55 41.65 201.55 44.56V66.86C201.55 77.07 207.44 83.41 216.91 83.41C222.08 83.41 226.23 81.29 229.57 76.94V77.73C229.57 80.6 231.94 82.93 234.85 82.93C237.76 82.93 240.13 80.6 240.13 77.73V44.56C240.13 41.65 237.76 39.28 234.85 39.28Z" fill="#09092D"/>
<path d="M272.44 38.88C267.3 38.88 263.14 40.98 259.78 45.29V44.56C259.78 41.6 257.46 39.28 254.5 39.28C251.54 39.28 249.3 41.6 249.3 44.56V77.74C249.3 80.66 251.58 82.94 254.5 82.94C257.42 82.94 259.78 80.66 259.78 77.74V58.45C259.78 52.4 263.32 48.49 268.79 48.49C274.26 48.49 277.32 52.06 277.32 58.29V77.74C277.32 80.66 279.64 82.94 282.6 82.94C285.56 82.94 287.8 80.7 287.8 77.74V55.36C287.8 45.2 281.91 38.89 272.44 38.89" fill="#09092D"/>
<path d="M328.33 61.07V61.23C328.33 67.61 323.95 74.21 316.62 74.21C309.99 74.21 304.99 68.63 304.99 61.23V61.07C304.99 53.43 309.77 48.09 316.62 48.09C323.47 48.09 328.33 53.67 328.33 61.07ZM333.37 23.33C330.45 23.33 328.17 25.61 328.17 28.53V45.46C324.45 41.04 319.9 38.89 314.32 38.89C304.44 38.89 294.43 46.51 294.43 61.08V61.24C294.43 67.86 296.56 73.52 300.59 77.63C304.2 81.31 309.21 83.43 314.32 83.43C319.93 83.43 324.47 81.15 328.17 76.45V77.75C328.17 80.67 330.49 82.95 333.45 82.95C336.41 82.95 338.65 80.67 338.65 77.75V28.53C338.65 25.61 336.33 23.33 333.37 23.33Z" fill="#09092D"/>
<path d="M356.08 57.77C357.09 51.58 361.11 47.61 366.45 47.61C372.96 47.61 375.94 52.77 376.59 57.77H356.08ZM366.53 38.88C354.61 38.88 345.61 48.45 345.61 61.15V61.31C345.61 74.17 354.84 83.5 367.56 83.5C373.65 83.5 378.68 81.65 382.95 77.82C383.85 76.92 384.35 75.77 384.35 74.57C384.35 72.1 382.52 70.24 380.1 70.24C378.86 70.24 378.14 70.61 377.36 71.21C374.46 73.6 371.3 74.76 367.72 74.76C361.67 74.76 357.29 71.03 356.17 65H381.93C384.71 65 386.89 62.79 386.89 59.96C386.89 49.74 379.75 38.89 366.53 38.89" fill="#09092D"/>
<path d="M425.4 39.28C423.16 39.28 421.5 40.49 420.47 42.89L409.92 69.79L399.53 43.05C398.51 40.51 396.82 39.28 394.36 39.28C391.59 39.28 389.16 41.64 389.16 44.32C389.16 45.15 389.42 45.9 389.64 46.55L403.72 78.86C405.02 81.82 406.99 83.33 409.6 83.33H410.08C412.61 83.33 414.64 81.79 415.96 78.86L429.92 46.81C430.14 46.36 430.52 45.33 430.52 44.31C430.52 41.48 428.27 39.27 425.4 39.27" fill="#09092D"/>
<path d="M443.18 57.77C444.19 51.58 448.22 47.61 453.55 47.61C460.06 47.61 463.04 52.77 463.69 57.77H443.18ZM453.63 38.88C441.71 38.88 432.71 48.45 432.71 61.15V61.31C432.71 74.17 441.94 83.5 454.66 83.5C460.75 83.5 465.78 81.65 470.05 77.82C470.95 76.92 471.45 75.77 471.45 74.57C471.45 72.1 469.62 70.24 467.2 70.24C465.96 70.24 465.24 70.61 464.46 71.21C461.56 73.6 458.4 74.76 454.82 74.76C448.77 74.76 444.39 71.03 443.27 65H469.03C471.81 65 473.99 62.79 473.99 59.96C473.99 49.74 466.85 38.89 453.63 38.89" fill="#09092D"/>
<path d="M501.62 39.2C497.92 39.2 494.01 42.23 491.5 46.92V44.56C491.5 41.6 489.18 39.28 486.22 39.28C483.26 39.28 481.02 41.6 481.02 44.56V77.74C481.02 80.66 483.3 82.94 486.22 82.94C489.14 82.94 491.5 80.61 491.5 77.74V65.36C491.5 56.35 495.46 50.69 502.65 49.44C505.18 48.97 506.82 47 506.82 44.41C506.82 41.25 504.78 39.21 501.62 39.21" fill="#09092D"/>
<path d="M516.68 30.22H515.02C514.6 30.22 514.25 29.87 514.25 29.45C514.25 29.03 514.6 28.68 515.02 28.68H520.07C520.49 28.68 520.84 29.03 520.84 29.45C520.84 29.87 520.5 30.22 520.07 30.22H518.41V35.59C518.41 36.06 518.01 36.45 517.54 36.45C517.07 36.45 516.67 36.06 516.67 35.59V30.22H516.68Z" fill="#09092D"/>
<path d="M522.47 29.43C522.47 28.96 522.84 28.59 523.31 28.59H523.51C523.86 28.59 524.13 28.79 524.28 29.04L526.28 32.33L528.33 29.04C528.5 28.74 528.72 28.59 529.07 28.59H529.27C529.71 28.59 530.09 28.96 530.09 29.43V35.64C530.09 36.09 529.72 36.46 529.27 36.46C528.82 36.46 528.45 36.09 528.45 35.64V31.66L526.97 33.96C526.8 34.23 526.6 34.4 526.28 34.4C525.96 34.4 525.76 34.25 525.56 33.96L524.1 31.71V35.64C524.1 36.09 523.73 36.46 523.28 36.46C522.83 36.46 522.46 36.09 522.46 35.64V29.43H522.47Z" fill="#09092D"/>
<path d="M33.9401 28.06C30.6901 28.06 28.0501 30.7 28.0501 33.95V61.55C28.0501 64 29.0001 66.29 30.7301 68.02C32.4601 69.75 34.7601 70.7 37.2001 70.7C39.6401 70.7 41.9401 69.75 43.6701 68.02L68.0101 43.68C69.7401 41.95 70.6901 39.65 70.6901 37.21C70.6901 34.77 69.7401 32.47 68.0101 30.73C66.2801 29 63.9801 28.05 61.5401 28.05H33.9401V28.06ZM37.2001 75.91C33.3701 75.91 29.7601 74.42 27.0501 71.71C24.3401 69 22.8501 65.39 22.8501 61.56V33.96C22.8501 27.85 27.8201 22.87 33.9401 22.87H61.5401C65.3701 22.87 68.9801 24.36 71.6901 27.08C74.4001 29.79 75.8901 33.39 75.8901 37.23C75.8901 41.07 74.4001 44.67 71.6901 47.38L47.3501 71.72C44.6401 74.43 41.0401 75.92 37.2001 75.92" fill="#4A4AF9"/>
<path d="M14.03 44.13C12.59 44.13 11.43 42.97 11.43 41.53V33.95C11.43 21.53 21.53 11.43 33.95 11.43H61.19C64.54 11.43 67.82 12.05 70.96 13.27C72.3 13.79 72.96 15.29 72.44 16.63C71.92 17.97 70.42 18.63 69.08 18.11C66.59 17.14 63.86 16.63 61.2 16.63H33.96C24.41 16.63 16.64 24.4 16.64 33.95V41.53C16.64 42.96 15.48 44.13 14.04 44.13M69.89 64.07C69.21 64.07 68.54 63.81 68.03 63.28C67.03 62.25 67.05 60.61 68.08 59.61L76.15 51.75C83.09 44.81 84.14 33.84 78.63 25.69C77.82 24.5 78.14 22.89 79.33 22.08C80.52 21.27 82.14 21.59 82.94 22.78C89.85 32.99 88.53 46.73 79.81 55.45L71.72 63.33C71.21 63.82 70.56 64.07 69.91 64.07M7.08 81.21C6.17 81.21 5.29 80.74 4.82 79.89C4.54 79.4 4.28 78.91 4.02 78.41C3.05 76.51 2.24 74.51 1.62 72.46C0.96 70.31 0.59 67.96 0.47 65.3L0 54.43V33.95C0 15.23 15.23 0 33.95 0H40.3C41.73 0 42.9 1.16 42.9 2.6C42.9 4.04 41.74 5.2 40.3 5.2H33.95C18.1 5.2 5.2 18.1 5.2 33.95V54.32L5.66 65.08C5.75 67.3 6.06 69.22 6.59 70.95C7.13 72.71 7.82 74.42 8.65 76.06C8.87 76.49 9.1 76.92 9.34 77.34C10.05 78.59 9.61 80.17 8.36 80.88C7.95 81.11 7.52 81.22 7.08 81.22M37.22 87.34C30.33 87.34 23.86 84.66 18.99 79.79C14.12 74.92 11.44 68.45 11.44 61.56V55.13C11.44 53.7 12.6 52.53 14.04 52.53C15.48 52.53 16.64 53.69 16.64 55.13V61.56C16.64 67.06 18.78 72.23 22.67 76.12C26.56 80 31.72 82.14 37.23 82.14C42.74 82.14 47.9 80 51.79 76.12L58.51 69.4C59.52 68.38 61.17 68.38 62.18 69.4C63.19 70.41 63.19 72.06 62.18 73.07L55.46 79.79C50.6 84.66 44.12 87.34 37.23 87.34M37.31 98.78C34.79 98.78 32.24 98.53 29.67 98.03C25.03 97.12 20.51 95.23 16.59 92.56C16.07 92.21 15.63 91.83 15.19 91.45C14.98 91.27 14.78 91.09 14.55 90.92C13.42 90.03 13.22 88.4 14.11 87.27C15 86.14 16.63 85.94 17.76 86.83C18.05 87.06 18.32 87.29 18.59 87.52C18.88 87.77 19.17 88.03 19.51 88.26C22.86 90.54 26.71 92.15 30.67 92.93C41.55 95.07 52.19 91.89 59.87 84.2L83.54 60.53C89.79 54.28 93.35 46.3 93.56 38.08C93.8 28.82 90.22 20.23 83.49 13.89C77.54 8.29 69.42 5.21 60.62 5.21H53.93C52.5 5.21 51.33 4.05 51.33 2.61C51.33 1.17 52.49 0.01 53.93 0.01H60.62C70.74 0.01 80.13 3.6 87.05 10.1C94.88 17.47 99.03 27.45 98.76 38.21C98.51 47.77 94.41 57 87.21 64.2L63.54 87.87C56.43 94.98 47.15 98.77 37.3 98.77" fill="#4A4AF9"/>
</g>
</g>
<defs>
<clipPath id="clip0_33_6546">
<rect width="531" height="99" fill="white"/>
</clipPath>
<clipPath id="clip1_33_6546">
<rect width="531" height="99" fill="white"/>
</clipPath>
</defs>
</svg>
