<?xml version="1.0" encoding="UTF-8" standalone="no"?><!DOCTYPE svg PUBLIC "-//W3C//DTD SVG 1.1//EN" "http://www.w3.org/Graphics/SVG/1.1/DTD/svg11.dtd"><svg width="270px" height="80px" viewBox="0 0 57 20" version="1.1" xmlns="http://www.w3.org/2000/svg" xmlns:xlink="http://www.w3.org/1999/xlink" xml:space="preserve" xmlns:serif="http://www.serif.com/" style="fill-rule:evenodd;clip-rule:evenodd;stroke-linejoin:round;stroke-miterlimit:2;"><path d="M18.019,2.46l1.302,-0l0.585,2.262l0.009,-0l0.585,-2.262l1.302,-0l-0,3.393l-0.832,-0l0,-2.576l-0.009,0l-0.713,2.576l-0.675,-0l-0.713,-2.576l-0.009,0l-0,2.576l-0.832,-0l-0,-3.393Z" style="fill-rule:nonzero;"/><path d="M24.026,5.164c0.57,-0 0.788,-0.504 0.788,-1.008c0,-0.503 -0.218,-1.007 -0.788,-1.007c-0.571,-0 -0.789,0.504 -0.789,1.007c-0,0.504 0.218,1.008 0.789,1.008m-0,-2.776c1.069,0 1.672,0.785 1.672,1.768c0,0.984 -0.603,1.768 -1.672,1.768c-1.07,0 -1.673,-0.784 -1.673,-1.768c-0,-0.983 0.603,-1.768 1.673,-1.768" style="fill-rule:nonzero;"/><path d="M27.128,5.092l0.419,0c0.67,-0.014 0.936,-0.275 0.936,-0.955c-0,-0.618 -0.333,-0.917 -0.936,-0.917l-0.419,0l0,1.872Zm-0.883,-2.632l1.459,-0c1.04,-0 1.663,0.632 1.663,1.682c-0,1.112 -0.632,1.711 -1.663,1.711l-1.459,-0l-0,-3.393Z" style="fill-rule:nonzero;"/><path d="M29.915,2.46l2.704,-0l-0,0.708l-1.82,-0l-0,0.594l1.663,-0l0,0.684l-1.663,0l-0,0.646l1.867,0l0,0.761l-2.751,-0l-0,-3.393Z" style="fill-rule:nonzero;"/><path d="M34.155,3.933l0.741,-0c0.267,-0 0.409,-0.143 0.409,-0.399c0,-0.252 -0.2,-0.366 -0.447,-0.366l-0.703,-0l0,0.765Zm-0.884,-1.473l1.73,-0c0.599,-0 1.188,0.271 1.188,0.955c0,0.366 -0.176,0.713 -0.532,0.851l-0,0.009c0.361,0.086 0.465,0.49 0.494,0.813c0.01,0.142 0.024,0.641 0.143,0.765l-0.875,-0c-0.076,-0.114 -0.09,-0.447 -0.1,-0.542c-0.023,-0.342 -0.08,-0.694 -0.494,-0.694l-0.67,0l0,1.236l-0.884,-0l0,-3.393Z" style="fill-rule:nonzero;"/><path d="M37.881,4.589l0.77,-0l-0.375,-1.188l-0.01,-0l-0.385,1.188Zm-0.057,-2.129l0.899,-0l1.268,3.393l-0.922,-0l-0.209,-0.608l-1.183,-0l-0.214,0.608l-0.907,-0l1.268,-3.393Z" style="fill-rule:nonzero;"/><path d="M42.623,3.22l-1.012,0l-0,2.633l-0.884,-0l-0,-2.633l-1.013,0l0,-0.76l2.909,-0l-0,0.76Z" style="fill-rule:nonzero;"/><path d="M44.548,5.164c0.57,-0 0.789,-0.504 0.789,-1.008c0,-0.503 -0.219,-1.007 -0.789,-1.007c-0.57,-0 -0.789,0.504 -0.789,1.007c0,0.504 0.219,1.008 0.789,1.008m0,-2.776c1.069,0 1.673,0.785 1.673,1.768c-0,0.984 -0.604,1.768 -1.673,1.768c-1.069,0 -1.673,-0.784 -1.673,-1.768c0,-0.983 0.604,-1.768 1.673,-1.768" style="fill-rule:nonzero;"/><path d="M47.651,3.933l0.741,-0c0.267,-0 0.409,-0.143 0.409,-0.399c0,-0.252 -0.199,-0.366 -0.447,-0.366l-0.703,-0l0,0.765Zm-0.884,-1.473l1.73,-0c0.599,-0 1.188,0.271 1.188,0.955c0,0.366 -0.176,0.713 -0.532,0.851l-0,0.009c0.361,0.086 0.466,0.49 0.494,0.813c0.01,0.142 0.024,0.641 0.143,0.765l-0.875,-0c-0.076,-0.114 -0.09,-0.447 -0.1,-0.542c-0.023,-0.342 -0.08,-0.694 -0.494,-0.694l-0.67,0l0,1.236l-0.884,-0l0,-3.393Z" style="fill-rule:nonzero;"/><path d="M50.301,2.46l2.704,-0l0,0.708l-1.82,-0l0,0.594l1.663,-0l0,0.684l-1.663,0l0,0.646l1.868,0l-0,0.761l-2.752,-0l0,-3.393Z" style="fill-rule:nonzero;"/><path d="M53.653,2.46l0.908,-0l1.178,2.091l0.01,-0l-0,-2.091l0.831,-0l0,3.393l-0.907,-0l-1.179,-2.115l-0.009,0l-0,2.115l-0.832,-0l0,-3.393Z" style="fill-rule:nonzero;"/><path d="M18.758,9.247c0.019,0.4 0.266,0.528 0.642,0.528c0.266,-0 0.542,-0.095 0.542,-0.347c-0,-0.299 -0.485,-0.356 -0.975,-0.494c-0.484,-0.138 -0.993,-0.357 -0.993,-0.979c0,-0.742 0.746,-1.031 1.383,-1.031c0.675,-0 1.354,0.327 1.359,1.093l-0.884,-0c0.014,-0.309 -0.275,-0.409 -0.546,-0.409c-0.19,-0 -0.428,0.066 -0.428,0.29c0,0.261 0.489,0.309 0.984,0.446c0.489,0.138 0.983,0.366 0.983,0.98c0,0.86 -0.731,1.135 -1.478,1.135c-0.779,0 -1.468,-0.342 -1.473,-1.212l0.884,0Z" style="fill-rule:nonzero;"/><path d="M23.406,8.207c-0.048,-0.342 -0.314,-0.523 -0.685,-0.523c-0.57,-0 -0.789,0.504 -0.789,1.007c0,0.504 0.219,1.008 0.789,1.008c0.414,-0 0.651,-0.238 0.685,-0.627l0.884,-0c-0.048,0.874 -0.689,1.387 -1.55,1.387c-1.026,0 -1.691,-0.784 -1.691,-1.768c-0,-0.983 0.665,-1.767 1.691,-1.767c0.732,-0 1.526,0.465 1.55,1.283l-0.884,-0Z" style="fill-rule:nonzero;"/><path d="M24.706,6.995l0.884,-0l0,1.235l1.164,0l0,-1.235l0.884,-0l0,3.393l-0.884,-0l0,-1.397l-1.164,-0l0,1.397l-0.884,-0l0,-3.393Z" style="fill-rule:nonzero;"/><path d="M31.144,8.986c0,0.984 -0.451,1.473 -1.478,1.473c-1.026,0 -1.478,-0.489 -1.478,-1.473l0,-1.991l0.884,-0l0,2.043c0,0.438 0.162,0.661 0.594,0.661c0.433,-0 0.594,-0.223 0.594,-0.661l0,-2.043l0.884,-0l0,1.991Z" style="fill-rule:nonzero;"/><path d="M31.701,6.995l0.884,-0l0,2.633l1.583,-0l-0,0.76l-2.467,-0l0,-3.393Z" style="fill-rule:nonzero;"/><path d="M34.475,6.995l2.704,-0l-0,0.708l-1.82,-0l-0,0.594l1.663,-0l0,0.684l-1.663,0l-0,0.647l1.867,-0l0,0.76l-2.751,-0l-0,-3.393Z" style="fill-rule:nonzero;"/><path d="M40.305,10.112l0.823,0c0.177,0 0.332,-0.008 0.463,-0.023c0.131,-0.016 0.24,-0.049 0.326,-0.098c0.085,-0.049 0.149,-0.119 0.192,-0.209c0.043,-0.09 0.064,-0.21 0.064,-0.359c0,-0.142 -0.024,-0.257 -0.071,-0.344c-0.048,-0.088 -0.116,-0.155 -0.204,-0.202c-0.089,-0.048 -0.195,-0.08 -0.319,-0.098c-0.123,-0.017 -0.261,-0.026 -0.413,-0.026l-0.861,0l0,1.359Zm0,-1.635l0.818,0c0.168,0 0.309,-0.014 0.423,-0.042c0.114,-0.029 0.206,-0.071 0.276,-0.126c0.069,-0.056 0.119,-0.124 0.149,-0.205c0.03,-0.08 0.045,-0.173 0.045,-0.278c0,-0.107 -0.017,-0.198 -0.052,-0.273c-0.035,-0.074 -0.09,-0.135 -0.166,-0.181c-0.076,-0.045 -0.175,-0.079 -0.297,-0.099c-0.122,-0.021 -0.272,-0.031 -0.449,-0.031l-0.747,-0l0,1.235Zm-0.323,1.911l0,-3.422l1.236,0c0.2,0 0.371,0.021 0.513,0.062c0.143,0.041 0.259,0.1 0.35,0.176c0.09,0.076 0.156,0.167 0.197,0.273c0.041,0.106 0.062,0.223 0.062,0.349c-0,0.121 -0.016,0.225 -0.048,0.312c-0.032,0.087 -0.073,0.16 -0.124,0.218c-0.05,0.059 -0.108,0.105 -0.173,0.138c-0.065,0.033 -0.132,0.056 -0.202,0.069l0,0.009c0.238,0.035 0.414,0.129 0.53,0.281c0.116,0.152 0.173,0.342 0.173,0.57c0,0.178 -0.027,0.328 -0.083,0.452c-0.055,0.123 -0.132,0.223 -0.23,0.299c-0.099,0.076 -0.217,0.131 -0.354,0.164c-0.138,0.033 -0.288,0.05 -0.449,0.05l-1.398,-0Z" style="fill-rule:nonzero;"/><path d="M43.541,9.038l1.34,0l-0.67,-1.796l-0.67,1.796Zm-0.846,1.35l1.345,-3.422l0.366,0l1.312,3.422l-0.333,-0l-0.394,-1.074l-1.559,-0l-0.404,1.074l-0.333,-0Z" style="fill-rule:nonzero;"/><path d="M46.426,10.112l0.775,0c0.146,0 0.283,-0.008 0.411,-0.026c0.128,-0.017 0.259,-0.061 0.392,-0.13c0.114,-0.058 0.208,-0.135 0.281,-0.233c0.072,-0.099 0.13,-0.205 0.173,-0.321c0.043,-0.116 0.073,-0.237 0.09,-0.364c0.018,-0.126 0.027,-0.248 0.027,-0.366c-0,-0.123 -0.008,-0.249 -0.024,-0.378c-0.016,-0.128 -0.046,-0.25 -0.09,-0.366c-0.045,-0.115 -0.105,-0.221 -0.181,-0.318c-0.076,-0.097 -0.174,-0.177 -0.295,-0.24c-0.101,-0.054 -0.222,-0.089 -0.361,-0.105c-0.139,-0.015 -0.28,-0.023 -0.423,-0.023l-0.775,-0l0,2.87Zm-0.323,0.276l0,-3.422l1.169,0c0.095,0 0.189,0.002 0.281,0.007c0.092,0.005 0.182,0.016 0.271,0.033c0.088,0.018 0.175,0.044 0.259,0.079c0.084,0.035 0.165,0.081 0.244,0.138c0.114,0.082 0.208,0.183 0.281,0.301c0.073,0.119 0.131,0.244 0.173,0.376c0.043,0.131 0.073,0.265 0.091,0.399c0.017,0.135 0.026,0.259 0.026,0.373c-0,0.114 -0.007,0.23 -0.022,0.347c-0.014,0.117 -0.037,0.232 -0.069,0.345c-0.031,0.112 -0.073,0.22 -0.125,0.323c-0.053,0.103 -0.119,0.197 -0.198,0.283c-0.079,0.089 -0.165,0.16 -0.259,0.214c-0.093,0.054 -0.192,0.096 -0.294,0.126c-0.103,0.03 -0.21,0.05 -0.321,0.061c-0.111,0.011 -0.224,0.017 -0.338,0.017l-1.169,-0Z" style="fill-rule:nonzero;"/><path d="M49.463,10.388l0,-3.422l2.277,0l-0,0.276l-1.954,-0l0,1.235l1.764,0l-0,0.276l-1.764,0l0,1.359l2.001,0l0,0.276l-2.324,-0Z" style="fill-rule:nonzero;"/><path d="M52.557,7.403l-0.009,0l-0,2.985l-0.324,-0l0,-3.422l0.366,0l1.978,2.99l0.009,-0l0,-2.99l0.323,0l0,3.422l-0.375,-0l-1.968,-2.985Z" style="fill-rule:nonzero;"/><rect x="55.488" y="9.005" width="1.202" height="0.295"/><path d="M20.931,14.467l0.01,-0l0.746,-2.966l0.333,0l-0.898,3.422l-0.357,0l-0.794,-3.023l-0.009,0l-0.794,3.023l-0.356,0l-0.884,-3.422l0.323,0l0.737,2.966l0.009,-0l0.794,-2.966l0.361,0l0.779,2.966Z" style="fill-rule:nonzero;"/><path d="M24.37,10.703l0.308,-0l0,0.485l-0.308,-0l-0,-0.485Zm-0.756,-0l0.309,-0l-0,0.485l-0.309,-0l-0,-0.485Zm-0.822,0.798l0.323,0l-0,2.039c-0,0.425 0.079,0.731 0.238,0.917c0.158,0.187 0.413,0.281 0.765,0.281c0.183,-0 0.339,-0.025 0.468,-0.074c0.128,-0.049 0.232,-0.123 0.311,-0.223c0.079,-0.1 0.136,-0.224 0.171,-0.373c0.035,-0.149 0.052,-0.325 0.052,-0.528l0,-2.039l0.324,0l-0,2.134c-0,0.447 -0.11,0.788 -0.331,1.024c-0.22,0.236 -0.552,0.354 -0.995,0.354c-0.447,0 -0.78,-0.12 -0.998,-0.361c-0.219,-0.24 -0.328,-0.58 -0.328,-1.017l-0,-2.134Z" style="fill-rule:nonzero;"/><path d="M27.855,13.093c0.12,0 0.232,-0.012 0.335,-0.038c0.103,-0.025 0.192,-0.065 0.268,-0.121c0.076,-0.055 0.137,-0.126 0.181,-0.211c0.044,-0.086 0.066,-0.189 0.066,-0.309c0,-0.127 -0.023,-0.231 -0.068,-0.314c-0.046,-0.082 -0.108,-0.147 -0.186,-0.195c-0.077,-0.047 -0.166,-0.081 -0.266,-0.1c-0.1,-0.019 -0.204,-0.028 -0.311,-0.028l-1.027,-0l0,1.316l1.008,0Zm-1.008,0.276l0,1.554l-0.323,-0.005l0,-3.417l1.34,0c0.377,0 0.666,0.071 0.865,0.212c0.2,0.141 0.3,0.37 0.3,0.686c-0,0.216 -0.044,0.387 -0.131,0.514c-0.087,0.127 -0.229,0.234 -0.425,0.323c0.101,0.035 0.18,0.086 0.237,0.152c0.057,0.067 0.1,0.143 0.129,0.228c0.028,0.086 0.046,0.176 0.054,0.271c0.008,0.095 0.014,0.187 0.017,0.276c0.003,0.13 0.009,0.237 0.016,0.323c0.008,0.086 0.018,0.155 0.029,0.209c0.011,0.054 0.025,0.096 0.04,0.126c0.016,0.03 0.035,0.053 0.057,0.069l0,0.028l-0.356,0.005c-0.035,-0.057 -0.059,-0.136 -0.074,-0.237c-0.014,-0.102 -0.025,-0.208 -0.033,-0.319c-0.008,-0.111 -0.014,-0.218 -0.019,-0.323c-0.005,-0.105 -0.014,-0.19 -0.026,-0.257c-0.019,-0.092 -0.05,-0.165 -0.093,-0.221c-0.043,-0.055 -0.094,-0.097 -0.154,-0.126c-0.06,-0.028 -0.128,-0.047 -0.202,-0.057c-0.075,-0.009 -0.152,-0.014 -0.231,-0.014l-1.017,0Z" style="fill-rule:nonzero;"/><path d="M29.664,11.501l2.49,0l0,0.276l-1.084,-0l0,3.146l-0.323,0l0,-3.146l-1.083,-0l-0,-0.276Z" style="fill-rule:nonzero;"/><path d="M32.786,11.501l2.491,0l-0,0.276l-1.084,-0l0,3.146l-0.323,0l-0,-3.146l-1.084,-0l0,-0.276Z" style="fill-rule:nonzero;"/><path d="M36.048,14.923l0,-3.422l2.277,0l-0,0.276l-1.954,-0l0,1.236l1.764,-0l-0,0.275l-1.764,0l0,1.36l2.001,-0l0,0.275l-2.324,0Z" style="fill-rule:nonzero;"/><path d="M39.193,14.923l0,-3.422l0.494,0l1.122,3.018l0.01,0l1.102,-3.018l0.49,0l-0,3.422l-0.323,0l-0,-3.051l-0.01,-0l-1.122,3.051l-0.304,0l-1.126,-3.051l-0.01,-0l0,3.051l-0.323,0Z" style="fill-rule:nonzero;"/><path d="M43.817,14.648l0.822,-0c0.178,-0 0.332,-0.008 0.464,-0.024c0.131,-0.016 0.24,-0.048 0.325,-0.098c0.086,-0.049 0.15,-0.118 0.193,-0.209c0.043,-0.09 0.064,-0.21 0.064,-0.359c-0,-0.142 -0.024,-0.257 -0.071,-0.344c-0.048,-0.087 -0.116,-0.155 -0.205,-0.202c-0.088,-0.048 -0.195,-0.08 -0.318,-0.098c-0.124,-0.017 -0.262,-0.026 -0.414,-0.026l-0.86,0l0,1.36Zm0,-1.635l0.818,-0c0.167,-0 0.308,-0.015 0.423,-0.043c0.114,-0.029 0.205,-0.071 0.275,-0.126c0.07,-0.056 0.12,-0.124 0.15,-0.205c0.03,-0.08 0.045,-0.173 0.045,-0.278c0,-0.107 -0.017,-0.198 -0.052,-0.273c-0.035,-0.074 -0.09,-0.134 -0.167,-0.18c-0.076,-0.046 -0.175,-0.08 -0.297,-0.1c-0.122,-0.021 -0.271,-0.031 -0.449,-0.031l-0.746,-0l0,1.236Zm-0.323,1.91l-0,-3.422l1.236,0c0.199,0 0.37,0.021 0.513,0.062c0.143,0.041 0.259,0.1 0.349,0.176c0.091,0.076 0.156,0.167 0.197,0.273c0.042,0.106 0.062,0.223 0.062,0.349c0,0.121 -0.016,0.225 -0.047,0.312c-0.032,0.087 -0.073,0.16 -0.124,0.218c-0.051,0.059 -0.108,0.105 -0.173,0.138c-0.065,0.034 -0.133,0.057 -0.202,0.069l-0,0.01c0.237,0.035 0.414,0.128 0.53,0.28c0.115,0.152 0.173,0.342 0.173,0.57c0,0.178 -0.028,0.328 -0.083,0.452c-0.056,0.123 -0.132,0.223 -0.231,0.299c-0.098,0.076 -0.216,0.131 -0.354,0.164c-0.138,0.034 -0.287,0.05 -0.449,0.05l-1.397,0Z" style="fill-rule:nonzero;"/><path d="M46.959,14.923l0,-3.422l2.277,0l-0,0.276l-1.954,-0l0,1.236l1.764,-0l-0,0.275l-1.764,0l0,1.36l2.001,-0l0,0.275l-2.324,0Z" style="fill-rule:nonzero;"/><path d="M51.439,13.093c0.12,0 0.232,-0.012 0.335,-0.038c0.103,-0.025 0.193,-0.065 0.269,-0.121c0.076,-0.055 0.136,-0.126 0.18,-0.211c0.045,-0.086 0.067,-0.189 0.067,-0.309c-0,-0.127 -0.023,-0.231 -0.069,-0.314c-0.046,-0.082 -0.108,-0.147 -0.185,-0.195c-0.078,-0.047 -0.167,-0.081 -0.267,-0.1c-0.099,-0.019 -0.203,-0.028 -0.311,-0.028l-1.026,-0l-0,1.316l1.007,0Zm-1.007,0.276l-0,1.554l-0.324,-0.005l0,-3.417l1.341,0c0.377,0 0.665,0.071 0.865,0.212c0.199,0.141 0.299,0.37 0.299,0.686c0,0.216 -0.044,0.387 -0.131,0.514c-0.087,0.127 -0.229,0.234 -0.425,0.323c0.101,0.035 0.181,0.086 0.238,0.152c0.057,0.067 0.099,0.143 0.128,0.228c0.028,0.086 0.047,0.176 0.055,0.271c0.007,0.095 0.013,0.187 0.016,0.276c0.003,0.13 0.009,0.237 0.017,0.323c0.008,0.086 0.017,0.155 0.028,0.209c0.011,0.054 0.025,0.096 0.041,0.126c0.016,0.03 0.035,0.053 0.057,0.069l-0,0.028l-0.357,0.005c-0.035,-0.057 -0.059,-0.136 -0.073,-0.237c-0.015,-0.102 -0.026,-0.208 -0.034,-0.319c-0.008,-0.111 -0.014,-0.218 -0.019,-0.323c-0.004,-0.105 -0.013,-0.19 -0.026,-0.257c-0.019,-0.092 -0.05,-0.165 -0.092,-0.221c-0.043,-0.055 -0.095,-0.097 -0.155,-0.126c-0.06,-0.028 -0.127,-0.047 -0.202,-0.057c-0.074,-0.009 -0.151,-0.014 -0.23,-0.014l-1.017,0Z" style="fill-rule:nonzero;"/><path d="M55.022,13.431l-0,-0.276l1.464,0l-0,1.768l-0.276,0l-0,-0.584c-0.06,0.101 -0.129,0.194 -0.207,0.278c-0.078,0.084 -0.167,0.155 -0.268,0.214c-0.102,0.058 -0.219,0.103 -0.352,0.135c-0.133,0.032 -0.284,0.047 -0.452,0.047c-0.215,0 -0.415,-0.038 -0.598,-0.114c-0.184,-0.076 -0.343,-0.189 -0.476,-0.339c-0.133,-0.151 -0.237,-0.34 -0.311,-0.568c-0.074,-0.228 -0.112,-0.495 -0.112,-0.799c0,-0.25 0.032,-0.484 0.095,-0.701c0.064,-0.217 0.161,-0.405 0.293,-0.565c0.131,-0.16 0.296,-0.286 0.494,-0.378c0.198,-0.092 0.432,-0.138 0.701,-0.138c0.181,-0 0.349,0.022 0.506,0.066c0.157,0.045 0.298,0.112 0.423,0.202c0.125,0.091 0.231,0.203 0.316,0.338c0.086,0.135 0.148,0.294 0.186,0.478l-0.333,-0c-0.029,-0.127 -0.077,-0.241 -0.145,-0.343c-0.068,-0.101 -0.15,-0.186 -0.245,-0.254c-0.095,-0.068 -0.201,-0.12 -0.318,-0.157c-0.118,-0.036 -0.24,-0.054 -0.366,-0.054c-0.225,-0 -0.418,0.039 -0.58,0.118c-0.162,0.08 -0.295,0.191 -0.399,0.335c-0.105,0.145 -0.182,0.317 -0.231,0.519c-0.049,0.201 -0.073,0.422 -0.073,0.663c-0,0.19 0.027,0.37 0.083,0.541c0.055,0.171 0.136,0.322 0.242,0.452c0.106,0.13 0.236,0.233 0.39,0.309c0.153,0.076 0.329,0.114 0.525,0.114c0.092,-0 0.187,-0.01 0.285,-0.031c0.098,-0.021 0.193,-0.055 0.285,-0.102c0.092,-0.048 0.178,-0.11 0.257,-0.186c0.079,-0.076 0.147,-0.169 0.204,-0.28c0.054,-0.108 0.091,-0.22 0.112,-0.337c0.021,-0.118 0.032,-0.241 0.036,-0.371l-1.155,-0Z" style="fill-rule:nonzero;"/><rect x="17.746" y="15.879" width="39.134" height="3.321" style="fill:url(#_Linear1);"/><path d="M20.271,17.471l0.137,-0c0.118,-0 0.145,-0.108 0.145,-0.214c0,-0.204 -0.085,-0.213 -0.282,-0.209l-0,0.423Zm-0,0.99l-0.405,0l0,-1.723l0.591,0c0.33,0 0.496,0.133 0.496,0.476c-0,0.183 -0.044,0.314 -0.214,0.392l0,0.005c0.113,0.025 0.193,0.103 0.2,0.223c0.011,0.138 0.014,0.434 0.037,0.544c0.009,0.023 0.02,0.044 0.039,0.06l-0,0.023l-0.441,0c-0.012,-0.032 -0.021,-0.064 -0.023,-0.099c-0.007,-0.151 0.002,-0.294 -0.009,-0.399c-0.012,-0.106 -0.044,-0.175 -0.138,-0.182l-0.133,0l-0,0.68Z" style="fill:#fff;fill-rule:nonzero;"/><path d="M21.201,18.461l-0,-1.723l0.925,0l0,0.345l-0.521,-0l-0,0.317l0.505,-0l0,0.344l-0.505,0l-0,0.372l0.549,0l-0,0.345l-0.953,0Z" style="fill:#fff;fill-rule:nonzero;"/><path d="M22.771,18.151c0.271,0.018 0.274,-0.092 0.267,-0.322l-0,-0.562c-0.002,-0.203 -0.069,-0.214 -0.267,-0.219l0,1.103Zm-0.404,0.31l0,-1.723l0.439,0c0.147,0 0.324,0.005 0.455,0.081c0.156,0.091 0.181,0.259 0.181,0.425l0,0.765c-0.002,0.172 -0.055,0.298 -0.172,0.372c-0.106,0.069 -0.234,0.08 -0.359,0.08l-0.544,0Z" style="fill:#fff;fill-rule:nonzero;"/><path d="M23.664,18.461l0,-1.723l0.926,0l-0,0.345l-0.522,-0l0,0.317l0.506,-0l-0,0.344l-0.506,0l0,0.372l0.549,0l0,0.345l-0.953,0Z" style="fill:#fff;fill-rule:nonzero;"/><path d="M25.179,17.496l-0.005,0.005l0.037,0.96l-0.384,0l0,-1.723l0.416,0l0.312,0.963l0.007,-0l-0.039,-0.963l0.384,0l-0,1.723l-0.414,0l-0.314,-0.965Z" style="fill:#fff;fill-rule:nonzero;"/><rect x="26.293" y="17.692" width="0.388" height="0.393" style="fill:#fff;"/><path d="M27.481,17.48c0.076,-0.002 0.163,0.007 0.227,-0.043c0.042,-0.046 0.051,-0.115 0.051,-0.175c-0,-0.067 -0.007,-0.168 -0.076,-0.2c-0.039,-0.014 -0.094,-0.014 -0.159,-0.014l-0.043,0l-0,0.432Zm-0.405,0.981l0,-1.723l0.481,0c0.156,0 0.381,0.014 0.493,0.143c0.095,0.105 0.113,0.234 0.113,0.374c-0,0.186 -0.044,0.395 -0.227,0.48c-0.141,0.069 -0.304,0.048 -0.455,0.055l-0,0.671l-0.405,0Z" style="fill:#fff;fill-rule:nonzero;"/><path d="M28.766,17.471l0.138,-0c0.117,-0 0.145,-0.108 0.145,-0.214c-0,-0.204 -0.085,-0.213 -0.283,-0.209l0,0.423Zm0,0.99l-0.404,0l-0,-1.723l0.59,0c0.331,0 0.496,0.133 0.496,0.476c0,0.183 -0.043,0.314 -0.213,0.392l-0,0.005c0.112,0.025 0.193,0.103 0.2,0.223c0.011,0.138 0.013,0.434 0.036,0.544c0.01,0.023 0.021,0.044 0.04,0.06l-0,0.023l-0.442,0c-0.011,-0.032 -0.02,-0.064 -0.022,-0.099c-0.007,-0.151 0.002,-0.294 -0.01,-0.399c-0.011,-0.106 -0.043,-0.175 -0.138,-0.182l-0.133,0l0,0.68Z" style="fill:#fff;fill-rule:nonzero;"/><path d="M30.343,16.256l0.363,-0l-0,0.298l-0.363,0l-0,-0.298Zm-0.067,0.795l-0.004,-0l-0.118,0.771l0.235,0l-0.113,-0.771Zm-0.066,-0.497l-0.363,0l-0,-0.298l0.363,-0l-0,0.298Zm-0.554,1.907l0.377,-1.723l0.487,0l0.374,1.723l-0.409,0l-0.057,-0.335l-0.317,-0l-0.048,0.335l-0.407,0Z" style="fill:#fff;fill-rule:nonzero;"/><path d="M31.383,17.884l-0,0.122c-0,0.099 0.032,0.186 0.16,0.186c0.095,0 0.136,-0.085 0.136,-0.172c-0,-0.145 -0.12,-0.2 -0.225,-0.264c-0.124,-0.071 -0.23,-0.138 -0.306,-0.225c-0.073,-0.088 -0.117,-0.193 -0.117,-0.345c0,-0.324 0.195,-0.489 0.508,-0.489c0.351,-0 0.53,0.234 0.512,0.558l-0.372,0c-0.005,-0.101 -0,-0.239 -0.133,-0.248c-0.083,-0.007 -0.131,0.039 -0.141,0.115c-0.011,0.103 0.042,0.156 0.122,0.211c0.152,0.097 0.283,0.156 0.377,0.244c0.094,0.087 0.149,0.202 0.149,0.411c0,0.331 -0.183,0.514 -0.519,0.514c-0.37,0 -0.526,-0.206 -0.526,-0.434l0,-0.184l0.375,0Z" style="fill:#fff;fill-rule:nonzero;"/><path d="M32.255,18.461l0,-1.723l0.926,0l0,0.345l-0.521,-0l-0,0.317l0.505,-0l-0,0.344l-0.505,0l-0,0.372l0.549,0l-0,0.345l-0.954,0Z" style="fill:#fff;fill-rule:nonzero;"/><path d="M33.77,17.496l-0.005,0.005l0.037,0.96l-0.384,0l0,-1.723l0.416,0l0.313,0.963l0.007,-0l-0.04,-0.963l0.384,0l0,1.723l-0.413,0l-0.315,-0.965Z" style="fill:#fff;fill-rule:nonzero;"/><path d="M34.689,16.738l1.048,0l-0,0.345l-0.326,-0l-0,1.378l-0.405,0l0,-1.378l-0.317,-0l0,-0.345Z" style="fill:#fff;fill-rule:nonzero;"/><rect x="35.937" y="16.738" width="0.404" height="1.723" style="fill:#fff;"/><path d="M36.574,18.461l0,-1.723l0.926,0l-0,0.345l-0.522,-0l0,0.317l0.506,-0l-0,0.344l-0.506,0l0,0.372l0.549,0l0,0.345l-0.953,0Z" style="fill:#fff;fill-rule:nonzero;"/><path d="M38.14,17.471l0.138,-0c0.117,-0 0.145,-0.108 0.145,-0.214c-0,-0.204 -0.085,-0.213 -0.283,-0.209l0,0.423Zm0,0.99l-0.404,0l0,-1.723l0.59,0c0.331,0 0.497,0.133 0.497,0.476c-0,0.183 -0.044,0.314 -0.214,0.392l-0,0.005c0.113,0.025 0.193,0.103 0.2,0.223c0.011,0.138 0.014,0.434 0.037,0.544c0.009,0.023 0.02,0.044 0.039,0.06l-0,0.023l-0.441,0c-0.012,-0.032 -0.021,-0.064 -0.023,-0.099c-0.007,-0.151 0.002,-0.294 -0.01,-0.399c-0.011,-0.106 -0.043,-0.175 -0.137,-0.182l-0.134,0l0,0.68Z" style="fill:#fff;fill-rule:nonzero;"/><path d="M39.07,18.461l0,-1.723l0.926,0l0,0.345l-0.521,-0l-0,0.317l0.505,-0l0,0.344l-0.505,0l-0,0.372l0.549,0l-0,0.345l-0.954,0Z" style="fill:#fff;fill-rule:nonzero;"/><path d="M40.585,17.496l-0.005,0.005l0.037,0.96l-0.383,0l-0,-1.723l0.415,0l0.313,0.963l0.007,-0l-0.039,-0.963l0.383,0l0,1.723l-0.413,0l-0.315,-0.965Z" style="fill:#fff;fill-rule:nonzero;"/><rect x="41.7" y="17.692" width="0.388" height="0.393" style="fill:#fff;"/><path d="M42.478,18.461l0,-1.723l0.57,0l0.209,1.018l0.005,-0l0.216,-1.018l0.565,0l-0,1.723l-0.386,0l0.041,-1.351l-0.004,0l-0.285,1.351l-0.301,0l-0.278,-1.351l-0.005,0l0.037,1.351l-0.384,0Z" style="fill:#fff;fill-rule:nonzero;"/><path d="M44.958,17.239c0,-0.106 -0.009,-0.232 -0.142,-0.232c-0.129,-0 -0.145,0.126 -0.145,0.232l0,0.707c0,0.099 0.016,0.246 0.147,0.246c0.131,0 0.14,-0.147 0.14,-0.246l0,-0.707Zm0.405,0.673c-0,0.388 -0.136,0.59 -0.545,0.59c-0.409,0 -0.551,-0.202 -0.551,-0.59l-0,-0.701c-0,-0.33 0.198,-0.514 0.551,-0.514c0.354,-0 0.545,0.184 0.545,0.514l-0,0.701Z" style="fill:#fff;fill-rule:nonzero;"/><path d="M45.986,18.151c0.271,0.018 0.273,-0.092 0.266,-0.322l0,-0.562c-0.002,-0.203 -0.069,-0.214 -0.266,-0.219l-0,1.103Zm-0.405,0.31l0,-1.723l0.439,0c0.147,0 0.324,0.005 0.455,0.081c0.156,0.091 0.181,0.259 0.181,0.425l0,0.765c-0.002,0.172 -0.055,0.298 -0.172,0.372c-0.106,0.069 -0.234,0.08 -0.358,0.08l-0.545,0Z" style="fill:#fff;fill-rule:nonzero;"/><path d="M46.878,18.461l0,-1.723l0.926,0l-0,0.345l-0.521,-0l-0,0.317l0.505,-0l-0,0.344l-0.505,0l-0,0.372l0.549,0l-0,0.345l-0.954,0Z" style="fill:#fff;fill-rule:nonzero;"/><path d="M48.445,17.471l0.137,-0c0.118,-0 0.145,-0.108 0.145,-0.214c0,-0.204 -0.085,-0.213 -0.282,-0.209l-0,0.423Zm-0,0.99l-0.405,0l0,-1.723l0.591,0c0.33,0 0.496,0.133 0.496,0.476c-0,0.183 -0.044,0.314 -0.214,0.392l0,0.005c0.113,0.025 0.193,0.103 0.2,0.223c0.011,0.138 0.014,0.434 0.037,0.544c0.009,0.023 0.02,0.044 0.039,0.06l-0,0.023l-0.441,0c-0.012,-0.032 -0.021,-0.064 -0.023,-0.099c-0.007,-0.151 0.002,-0.294 -0.009,-0.399c-0.012,-0.106 -0.044,-0.175 -0.138,-0.182l-0.133,0l-0,0.68Z" style="fill:#fff;fill-rule:nonzero;"/><rect x="49.38" y="16.738" width="0.404" height="1.723" style="fill:#fff;"/><path d="M50.017,18.461l0,-1.723l0.926,0l0,0.345l-0.521,-0l-0,0.317l0.505,-0l0,0.344l-0.505,0l-0,0.372l0.549,0l-0,0.345l-0.954,0Z" style="fill:#fff;fill-rule:nonzero;"/><path d="M51.584,17.471l0.137,-0c0.118,-0 0.145,-0.108 0.145,-0.214c0,-0.204 -0.085,-0.213 -0.282,-0.209l-0,0.423Zm-0,0.99l-0.405,0l0,-1.723l0.591,0c0.33,0 0.496,0.133 0.496,0.476c-0,0.183 -0.044,0.314 -0.214,0.392l0,0.005c0.113,0.025 0.193,0.103 0.2,0.223c0.012,0.138 0.014,0.434 0.037,0.544c0.009,0.023 0.021,0.044 0.039,0.06l-0,0.023l-0.441,0c-0.012,-0.032 -0.021,-0.064 -0.023,-0.099c-0.007,-0.151 0.002,-0.294 -0.009,-0.399c-0.012,-0.106 -0.044,-0.175 -0.138,-0.182l-0.133,0l-0,0.68Z" style="fill:#fff;fill-rule:nonzero;"/><path d="M52.514,18.461l-0,-1.723l0.926,0l-0,0.345l-0.522,-0l0,0.317l0.505,-0l0,0.344l-0.505,0l0,0.372l0.549,0l0,0.345l-0.953,0Z" style="fill:#fff;fill-rule:nonzero;"/><path d="M54.028,17.496l-0.004,0.005l0.036,0.96l-0.383,0l-0,-1.723l0.416,0l0.312,0.963l0.007,-0l-0.039,-0.963l0.384,0l-0,1.723l-0.414,0l-0.315,-0.965Z" style="fill:#fff;fill-rule:nonzero;"/><path d="M7.468,7.597l-2.036,0l-0.937,1.622l-0.938,-1.622l-2.157,0c-0.288,0 -0.522,-0.181 -0.522,-0.403l0,-4.237c0,-0.221 0.234,-0.401 0.522,-0.401l6.068,-0l0,-0.879l-6.068,0c-0.772,0 -1.4,0.575 -1.4,1.28l-0,4.237c-0,0.705 0.628,1.279 1.4,1.279l1.653,0l1.443,2.5l1.443,-2.5l1.529,0l0,-0.876Z" style="fill-rule:nonzero;"/><path d="M7.468,0l0,0.878l6.069,0c0.287,0 0.521,0.18 0.521,0.402l0,4.236c0,0.223 -0.234,0.404 -0.521,0.404l-2.158,-0l-0.937,1.622l-0.937,-1.622l-2.037,-0l0,0.876l1.529,0l1.443,2.5l1.443,-2.5l1.654,0c0.772,0 1.399,-0.574 1.399,-1.28l0,-4.236c0,-0.706 -0.627,-1.28 -1.399,-1.28l-6.069,0Z" style="fill:url(#_Linear2);fill-rule:nonzero;"/><defs><linearGradient id="_Linear1" x1="0" y1="0" x2="1" y2="0" gradientUnits="userSpaceOnUse" gradientTransform="matrix(24.6003,-20.6421,20.6421,24.6003,25.0128,27.8604)"><stop offset="0" style="stop-color:#c7242f;stop-opacity:1"/><stop offset="1" style="stop-color:#ef3f36;stop-opacity:1"/></linearGradient><linearGradient id="_Linear2" x1="0" y1="0" x2="1" y2="0" gradientUnits="userSpaceOnUse" gradientTransform="matrix(7.31224,-6.1357,6.1357,7.31224,7.16107,6.43001)"><stop offset="0" style="stop-color:#c7242f;stop-opacity:1"/><stop offset="1" style="stop-color:#ef3f36;stop-opacity:1"/></linearGradient></defs></svg>